<svg width="24" height="24" viewBox="0 0 24 24" fill="none" xmlns="http://www.w3.org/2000/svg">
<path fill-rule="evenodd" clip-rule="evenodd" d="M12 14.5385L4 23L4 3C4 1.89543 4.89543 1 6 1H18C19.1046 1 20 1.89543 20 3V23L12 14.5385Z" fill="white"/>
<path fill-rule="evenodd" clip-rule="evenodd" d="M18.4006 19.1925V3.69254C18.4006 3.14025 17.9529 2.69254 17.4006 2.69254H6.60059C6.0483 2.69254 5.60059 3.14025 5.60059 3.69254V19.1925L12.0006 14.1156L18.4006 19.1925ZM12 16.2308L4 23V3C4 1.89543 4.89543 1 6 1H18C19.1046 1 20 1.89543 20 3V23C20 23 12.0448 16.1952 12 16.2308Z" fill="white"/>
</svg>
